<svg xmlns="http://www.w3.org/2000/svg" x="0px" y="0px" width="50" height="50" viewBox="0 0 50 50">
    <path d="M 25 2 C 12.317 2 2 12.318 2 25 C 2 37.682 12.317 48 25 48 C 37.683 48 48 37.682 48 25 C 48 12.318 37.683 2 25 2 z M 21 10 L 23 10 L 23 13 L 25 13 L 25 10 L 27 10 L 27 13.015625 C 29.064 13.107625 33.900391 13.797391 33.900391 18.900391 C 33.900391 23.000391 30.399219 24.100781 29.699219 24.300781 L 29.699219 24.400391 C 31.199219 24.600391 34.800781 25.999219 34.800781 30.199219 C 34.800781 36.277219 29.301 36.927187 27 36.992188 L 27 40 L 25 40 L 25 37 L 23 37 L 23 40 L 21 40 L 21 37 L 16 37 L 16 13 L 21 13 L 21 10 z M 18.300781 14.900391 L 18.300781 23.5 L 26.199219 23.5 C 27.099219 23.5 27.899609 23.399219 28.599609 23.199219 C 29.299609 22.999219 29.800781 22.700781 30.300781 22.300781 C 30.700781 21.900781 31.100781 21.5 31.300781 21 C 31.500781 20.5 31.599609 20.000391 31.599609 19.400391 C 31.599609 16.400391 29.799219 14.900391 26.199219 14.900391 L 18.300781 14.900391 z M 18.300781 25.5 L 18.300781 35.099609 L 26.199219 35.099609 C 27.099219 35.099609 27.899609 35.000391 28.599609 34.900391 C 29.399609 34.800391 29.999609 34.499609 30.599609 34.099609 C 31.199609 33.699609 31.6 33.199609 32 32.599609 C 32.3 31.999609 32.5 31.199219 32.5 30.199219 C 32.5 28.699219 32.000391 27.499219 30.900391 26.699219 C 29.800391 25.899219 28.199219 25.5 26.199219 25.5 L 18.300781 25.5 z"></path>
</svg>